<mxfile host="app.diagrams.net" modified="2024-01-30T08:44:32.308Z" agent="Mozilla/5.0 (Macintosh; Intel Mac OS X 10_15_7) AppleWebKit/537.36 (KHTML, like Gecko) Chrome/121.0.0.0 Safari/537.36" etag="dmV_cwxNa4RdMyzdQFIo" version="23.0.2" type="github">
  <diagram id="C5RBs43oDa-KdzZeNtuy" name="Page-1">
    <mxGraphModel dx="3731" dy="2054" grid="1" gridSize="10" guides="1" tooltips="1" connect="1" arrows="1" fold="1" page="1" pageScale="1" pageWidth="1200" pageHeight="1019" math="0" shadow="0">
      <root>
        <mxCell id="WIyWlLk6GJQsqaUBKTNV-0" />
        <mxCell id="WIyWlLk6GJQsqaUBKTNV-1" parent="WIyWlLk6GJQsqaUBKTNV-0" />
        <mxCell id="l9t0wcETzTMkrGcvasQv-54" value="" style="group" vertex="1" connectable="0" parent="WIyWlLk6GJQsqaUBKTNV-1">
          <mxGeometry x="141" y="64" width="910" height="880" as="geometry" />
        </mxCell>
        <mxCell id="WIyWlLk6GJQsqaUBKTNV-3" value="Start CableCo3 App" style="rounded=1;whiteSpace=wrap;html=1;fontSize=16;glass=0;strokeWidth=1;shadow=0;" parent="l9t0wcETzTMkrGcvasQv-54" vertex="1">
          <mxGeometry x="90" width="210" height="60" as="geometry" />
        </mxCell>
        <mxCell id="WIyWlLk6GJQsqaUBKTNV-6" value="Already&lt;br&gt;Logged-In?" style="rhombus;whiteSpace=wrap;html=1;shadow=0;fontFamily=Helvetica;fontSize=16;align=center;strokeWidth=1;spacing=6;spacingTop=-4;" parent="l9t0wcETzTMkrGcvasQv-54" vertex="1">
          <mxGeometry x="125" y="100" width="140" height="120" as="geometry" />
        </mxCell>
        <mxCell id="l9t0wcETzTMkrGcvasQv-5" value="" style="edgeStyle=orthogonalEdgeStyle;rounded=0;orthogonalLoop=1;jettySize=auto;html=1;" edge="1" parent="l9t0wcETzTMkrGcvasQv-54" source="WIyWlLk6GJQsqaUBKTNV-3" target="WIyWlLk6GJQsqaUBKTNV-6">
          <mxGeometry relative="1" as="geometry" />
        </mxCell>
        <mxCell id="WIyWlLk6GJQsqaUBKTNV-7" value="Login Screen with License Plate Code and URL" style="rounded=1;whiteSpace=wrap;html=1;fontSize=16;glass=0;strokeWidth=1;shadow=0;" parent="l9t0wcETzTMkrGcvasQv-54" vertex="1">
          <mxGeometry x="329" y="120" width="166" height="80" as="geometry" />
        </mxCell>
        <mxCell id="l9t0wcETzTMkrGcvasQv-9" value="" style="edgeStyle=orthogonalEdgeStyle;rounded=0;orthogonalLoop=1;jettySize=auto;html=1;" edge="1" parent="l9t0wcETzTMkrGcvasQv-54" source="WIyWlLk6GJQsqaUBKTNV-6" target="WIyWlLk6GJQsqaUBKTNV-7">
          <mxGeometry relative="1" as="geometry" />
        </mxCell>
        <mxCell id="l9t0wcETzTMkrGcvasQv-0" value="Guide Launched" style="rounded=1;whiteSpace=wrap;html=1;fontSize=16;" vertex="1" parent="l9t0wcETzTMkrGcvasQv-54">
          <mxGeometry x="110" y="270" width="170" height="60" as="geometry" />
        </mxCell>
        <mxCell id="l9t0wcETzTMkrGcvasQv-6" value="" style="edgeStyle=orthogonalEdgeStyle;rounded=0;orthogonalLoop=1;jettySize=auto;html=1;" edge="1" parent="l9t0wcETzTMkrGcvasQv-54" source="WIyWlLk6GJQsqaUBKTNV-6" target="l9t0wcETzTMkrGcvasQv-0">
          <mxGeometry relative="1" as="geometry" />
        </mxCell>
        <mxCell id="l9t0wcETzTMkrGcvasQv-19" style="edgeStyle=orthogonalEdgeStyle;rounded=0;orthogonalLoop=1;jettySize=auto;html=1;entryX=0.5;entryY=0;entryDx=0;entryDy=0;exitX=0.5;exitY=0;exitDx=0;exitDy=0;" edge="1" parent="l9t0wcETzTMkrGcvasQv-54" source="l9t0wcETzTMkrGcvasQv-14" target="WIyWlLk6GJQsqaUBKTNV-7">
          <mxGeometry relative="1" as="geometry">
            <Array as="points">
              <mxPoint x="820" y="60" />
              <mxPoint x="412" y="60" />
            </Array>
          </mxGeometry>
        </mxCell>
        <mxCell id="l9t0wcETzTMkrGcvasQv-14" value="Login&lt;br style=&quot;font-size: 16px;&quot;&gt;Successful?" style="rhombus;whiteSpace=wrap;html=1;fontSize=16;" vertex="1" parent="l9t0wcETzTMkrGcvasQv-54">
          <mxGeometry x="730" y="100" width="180" height="120" as="geometry" />
        </mxCell>
        <mxCell id="l9t0wcETzTMkrGcvasQv-15" value="" style="edgeStyle=orthogonalEdgeStyle;rounded=0;orthogonalLoop=1;jettySize=auto;html=1;" edge="1" parent="l9t0wcETzTMkrGcvasQv-54" source="WIyWlLk6GJQsqaUBKTNV-7" target="l9t0wcETzTMkrGcvasQv-14">
          <mxGeometry relative="1" as="geometry" />
        </mxCell>
        <mxCell id="l9t0wcETzTMkrGcvasQv-16" value="Go to URL using Mobile/Desktop&lt;br style=&quot;font-size: 15px;&quot;&gt;Login using your Credentials and&lt;br style=&quot;font-size: 15px;&quot;&gt;License Plate Code" style="text;html=1;align=center;verticalAlign=middle;resizable=0;points=[];autosize=1;strokeColor=none;fillColor=none;fontSize=15;" vertex="1" parent="l9t0wcETzTMkrGcvasQv-54">
          <mxGeometry x="500" y="95" width="240" height="70" as="geometry" />
        </mxCell>
        <mxCell id="l9t0wcETzTMkrGcvasQv-17" style="edgeStyle=orthogonalEdgeStyle;rounded=0;orthogonalLoop=1;jettySize=auto;html=1;exitX=0.5;exitY=1;exitDx=0;exitDy=0;" edge="1" parent="l9t0wcETzTMkrGcvasQv-54" source="l9t0wcETzTMkrGcvasQv-14">
          <mxGeometry relative="1" as="geometry">
            <mxPoint x="195" y="240" as="targetPoint" />
            <Array as="points">
              <mxPoint x="820" y="240" />
            </Array>
          </mxGeometry>
        </mxCell>
        <mxCell id="l9t0wcETzTMkrGcvasQv-18" value="Yes" style="text;html=1;align=center;verticalAlign=middle;resizable=0;points=[];autosize=1;strokeColor=none;fillColor=none;fontSize=16;" vertex="1" parent="l9t0wcETzTMkrGcvasQv-54">
          <mxGeometry x="752" y="214" width="50" height="30" as="geometry" />
        </mxCell>
        <mxCell id="l9t0wcETzTMkrGcvasQv-20" value="No / License Plate Code Expired" style="text;html=1;align=center;verticalAlign=middle;resizable=0;points=[];autosize=1;strokeColor=none;fillColor=none;fontSize=16;" vertex="1" parent="l9t0wcETzTMkrGcvasQv-54">
          <mxGeometry x="490" y="30" width="250" height="30" as="geometry" />
        </mxCell>
        <mxCell id="l9t0wcETzTMkrGcvasQv-21" value="Guide Operations" style="swimlane;fontStyle=0;childLayout=stackLayout;horizontal=1;startSize=30;horizontalStack=0;resizeParent=1;resizeParentMax=0;resizeLast=0;collapsible=1;marginBottom=0;whiteSpace=wrap;html=1;fontSize=16;" vertex="1" parent="l9t0wcETzTMkrGcvasQv-54">
          <mxGeometry x="50" y="380" width="290" height="150" as="geometry">
            <mxRectangle x="275" y="440" width="130" height="30" as="alternateBounds" />
          </mxGeometry>
        </mxCell>
        <mxCell id="l9t0wcETzTMkrGcvasQv-22" value="Select Channel" style="text;strokeColor=none;fillColor=none;align=left;verticalAlign=middle;spacingLeft=4;spacingRight=4;overflow=hidden;points=[[0,0.5],[1,0.5]];portConstraint=eastwest;rotatable=0;whiteSpace=wrap;html=1;fontSize=16;" vertex="1" parent="l9t0wcETzTMkrGcvasQv-21">
          <mxGeometry y="30" width="290" height="30" as="geometry" />
        </mxCell>
        <mxCell id="l9t0wcETzTMkrGcvasQv-23" value="Select Currently Airing Program" style="text;strokeColor=none;fillColor=none;align=left;verticalAlign=middle;spacingLeft=4;spacingRight=4;overflow=hidden;points=[[0,0.5],[1,0.5]];portConstraint=eastwest;rotatable=0;whiteSpace=wrap;html=1;fontSize=16;" vertex="1" parent="l9t0wcETzTMkrGcvasQv-21">
          <mxGeometry y="60" width="290" height="30" as="geometry" />
        </mxCell>
        <mxCell id="l9t0wcETzTMkrGcvasQv-24" value="Press D Key" style="text;strokeColor=none;fillColor=none;align=left;verticalAlign=middle;spacingLeft=4;spacingRight=4;overflow=hidden;points=[[0,0.5],[1,0.5]];portConstraint=eastwest;rotatable=0;whiteSpace=wrap;html=1;fontSize=16;" vertex="1" parent="l9t0wcETzTMkrGcvasQv-21">
          <mxGeometry y="90" width="290" height="30" as="geometry" />
        </mxCell>
        <mxCell id="l9t0wcETzTMkrGcvasQv-28" value="Press Back/Exit Key" style="text;strokeColor=none;fillColor=none;align=left;verticalAlign=middle;spacingLeft=4;spacingRight=4;overflow=hidden;points=[[0,0.5],[1,0.5]];portConstraint=eastwest;rotatable=0;whiteSpace=wrap;html=1;fontSize=16;" vertex="1" parent="l9t0wcETzTMkrGcvasQv-21">
          <mxGeometry y="120" width="290" height="30" as="geometry" />
        </mxCell>
        <mxCell id="l9t0wcETzTMkrGcvasQv-26" style="edgeStyle=orthogonalEdgeStyle;rounded=0;orthogonalLoop=1;jettySize=auto;html=1;entryX=0.5;entryY=0;entryDx=0;entryDy=0;" edge="1" parent="l9t0wcETzTMkrGcvasQv-54" source="l9t0wcETzTMkrGcvasQv-0" target="l9t0wcETzTMkrGcvasQv-21">
          <mxGeometry relative="1" as="geometry" />
        </mxCell>
        <mxCell id="l9t0wcETzTMkrGcvasQv-30" value="Do Live TV Operations" style="rounded=1;whiteSpace=wrap;html=1;fontSize=16;" vertex="1" parent="l9t0wcETzTMkrGcvasQv-54">
          <mxGeometry x="650" y="422" width="180" height="30" as="geometry" />
        </mxCell>
        <mxCell id="l9t0wcETzTMkrGcvasQv-31" style="edgeStyle=orthogonalEdgeStyle;rounded=0;orthogonalLoop=1;jettySize=auto;html=1;" edge="1" parent="l9t0wcETzTMkrGcvasQv-54" source="l9t0wcETzTMkrGcvasQv-22" target="l9t0wcETzTMkrGcvasQv-30">
          <mxGeometry relative="1" as="geometry">
            <Array as="points">
              <mxPoint x="380" y="425" />
              <mxPoint x="380" y="437" />
            </Array>
          </mxGeometry>
        </mxCell>
        <mxCell id="l9t0wcETzTMkrGcvasQv-32" style="edgeStyle=orthogonalEdgeStyle;rounded=0;orthogonalLoop=1;jettySize=auto;html=1;entryX=0;entryY=0.5;entryDx=0;entryDy=0;" edge="1" parent="l9t0wcETzTMkrGcvasQv-54" source="l9t0wcETzTMkrGcvasQv-23" target="l9t0wcETzTMkrGcvasQv-30">
          <mxGeometry relative="1" as="geometry">
            <mxPoint x="395" y="440" as="targetPoint" />
            <Array as="points">
              <mxPoint x="380" y="455" />
              <mxPoint x="380" y="437" />
            </Array>
          </mxGeometry>
        </mxCell>
        <mxCell id="l9t0wcETzTMkrGcvasQv-33" value="Launch LiveTV" style="text;html=1;align=center;verticalAlign=middle;resizable=0;points=[];autosize=1;strokeColor=none;fillColor=none;fontSize=16;" vertex="1" parent="l9t0wcETzTMkrGcvasQv-54">
          <mxGeometry x="494" y="412" width="130" height="30" as="geometry" />
        </mxCell>
        <mxCell id="l9t0wcETzTMkrGcvasQv-34" style="edgeStyle=orthogonalEdgeStyle;rounded=0;orthogonalLoop=1;jettySize=auto;html=1;exitX=1;exitY=0.5;exitDx=0;exitDy=0;" edge="1" parent="l9t0wcETzTMkrGcvasQv-54" source="l9t0wcETzTMkrGcvasQv-30" target="l9t0wcETzTMkrGcvasQv-21">
          <mxGeometry relative="1" as="geometry">
            <Array as="points">
              <mxPoint x="890" y="437" />
              <mxPoint x="890" y="395" />
            </Array>
          </mxGeometry>
        </mxCell>
        <mxCell id="l9t0wcETzTMkrGcvasQv-35" value="Press Back Key to Return" style="text;html=1;align=center;verticalAlign=middle;resizable=0;points=[];autosize=1;strokeColor=none;fillColor=none;fontSize=16;" vertex="1" parent="l9t0wcETzTMkrGcvasQv-54">
          <mxGeometry x="330" y="368" width="210" height="30" as="geometry" />
        </mxCell>
        <mxCell id="l9t0wcETzTMkrGcvasQv-53" style="edgeStyle=orthogonalEdgeStyle;rounded=0;orthogonalLoop=1;jettySize=auto;html=1;" edge="1" parent="l9t0wcETzTMkrGcvasQv-54" source="l9t0wcETzTMkrGcvasQv-36">
          <mxGeometry relative="1" as="geometry">
            <mxPoint x="890" y="430" as="targetPoint" />
          </mxGeometry>
        </mxCell>
        <mxCell id="l9t0wcETzTMkrGcvasQv-36" value="Do Settings Operations" style="rounded=1;whiteSpace=wrap;html=1;fontSize=16;" vertex="1" parent="l9t0wcETzTMkrGcvasQv-54">
          <mxGeometry x="650" y="470" width="180" height="30" as="geometry" />
        </mxCell>
        <mxCell id="l9t0wcETzTMkrGcvasQv-38" style="edgeStyle=orthogonalEdgeStyle;rounded=0;orthogonalLoop=1;jettySize=auto;html=1;entryX=0;entryY=0.5;entryDx=0;entryDy=0;" edge="1" parent="l9t0wcETzTMkrGcvasQv-54" source="l9t0wcETzTMkrGcvasQv-24" target="l9t0wcETzTMkrGcvasQv-36">
          <mxGeometry relative="1" as="geometry" />
        </mxCell>
        <mxCell id="l9t0wcETzTMkrGcvasQv-39" value="Launch Settings" style="text;html=1;align=center;verticalAlign=middle;resizable=0;points=[];autosize=1;strokeColor=none;fillColor=none;fontSize=16;" vertex="1" parent="l9t0wcETzTMkrGcvasQv-54">
          <mxGeometry x="431" y="460" width="140" height="30" as="geometry" />
        </mxCell>
        <mxCell id="l9t0wcETzTMkrGcvasQv-41" value="No" style="text;html=1;align=center;verticalAlign=middle;resizable=0;points=[];autosize=1;strokeColor=none;fillColor=none;fontSize=16;" vertex="1" parent="l9t0wcETzTMkrGcvasQv-54">
          <mxGeometry x="275" y="136" width="40" height="30" as="geometry" />
        </mxCell>
        <mxCell id="l9t0wcETzTMkrGcvasQv-42" value="Yes" style="text;html=1;align=center;verticalAlign=middle;resizable=0;points=[];autosize=1;strokeColor=none;fillColor=none;fontSize=16;" vertex="1" parent="l9t0wcETzTMkrGcvasQv-54">
          <mxGeometry x="150" y="225" width="50" height="30" as="geometry" />
        </mxCell>
        <mxCell id="l9t0wcETzTMkrGcvasQv-44" value="Exit&lt;br style=&quot;font-size: 17px;&quot;&gt;Confirmation?" style="rhombus;whiteSpace=wrap;html=1;fontSize=17;" vertex="1" parent="l9t0wcETzTMkrGcvasQv-54">
          <mxGeometry x="100" y="610" width="190" height="160" as="geometry" />
        </mxCell>
        <mxCell id="l9t0wcETzTMkrGcvasQv-45" value="" style="endArrow=classic;html=1;rounded=0;exitX=0.496;exitY=0.995;exitDx=0;exitDy=0;exitPerimeter=0;" edge="1" parent="l9t0wcETzTMkrGcvasQv-54" source="l9t0wcETzTMkrGcvasQv-28" target="l9t0wcETzTMkrGcvasQv-44">
          <mxGeometry width="50" height="50" relative="1" as="geometry">
            <mxPoint x="385" y="540" as="sourcePoint" />
            <mxPoint x="435" y="490" as="targetPoint" />
          </mxGeometry>
        </mxCell>
        <mxCell id="l9t0wcETzTMkrGcvasQv-46" value="App Closed" style="rounded=1;whiteSpace=wrap;html=1;fontSize=16;" vertex="1" parent="l9t0wcETzTMkrGcvasQv-54">
          <mxGeometry x="135" y="850" width="120" height="30" as="geometry" />
        </mxCell>
        <mxCell id="l9t0wcETzTMkrGcvasQv-47" value="" style="edgeStyle=orthogonalEdgeStyle;rounded=0;orthogonalLoop=1;jettySize=auto;html=1;" edge="1" parent="l9t0wcETzTMkrGcvasQv-54" source="l9t0wcETzTMkrGcvasQv-44" target="l9t0wcETzTMkrGcvasQv-46">
          <mxGeometry relative="1" as="geometry" />
        </mxCell>
        <mxCell id="l9t0wcETzTMkrGcvasQv-48" value="OK" style="text;html=1;align=center;verticalAlign=middle;resizable=0;points=[];autosize=1;strokeColor=none;fillColor=none;fontSize=16;" vertex="1" parent="l9t0wcETzTMkrGcvasQv-54">
          <mxGeometry x="188" y="790" width="50" height="30" as="geometry" />
        </mxCell>
        <mxCell id="l9t0wcETzTMkrGcvasQv-50" value="Cancel" style="text;html=1;align=center;verticalAlign=middle;resizable=0;points=[];autosize=1;strokeColor=none;fillColor=none;fontSize=16;" vertex="1" parent="l9t0wcETzTMkrGcvasQv-54">
          <mxGeometry x="30" y="660" width="70" height="30" as="geometry" />
        </mxCell>
        <mxCell id="l9t0wcETzTMkrGcvasQv-52" style="edgeStyle=orthogonalEdgeStyle;rounded=0;orthogonalLoop=1;jettySize=auto;html=1;exitX=0;exitY=0.5;exitDx=0;exitDy=0;" edge="1" parent="l9t0wcETzTMkrGcvasQv-54" source="l9t0wcETzTMkrGcvasQv-44" target="l9t0wcETzTMkrGcvasQv-21">
          <mxGeometry relative="1" as="geometry">
            <Array as="points">
              <mxPoint y="690" />
              <mxPoint y="396" />
            </Array>
          </mxGeometry>
        </mxCell>
      </root>
    </mxGraphModel>
  </diagram>
</mxfile>
